<svg xmlns="http://www.w3.org/2000/svg" xmlns:xlink="http://www.w3.org/1999/xlink" width="40" height="40" viewBox="0 0 40 40"><defs><path id="fd2na" d="M1020 1290.2a19.22 19.22 0 0 1-19.2-19.2c0-10.59 8.61-19.2 19.2-19.2s19.2 8.61 19.2 19.2-8.61 19.2-19.2 19.2zm0-36c-9.26 0-16.8 7.54-16.8 16.8 0 9.26 7.54 16.8 16.8 16.8 9.26 0 16.8-7.54 16.8-16.8 0-9.26-7.54-16.8-16.8-16.8zm-4.8 16.8a4.8 4.8 0 0 1 3.6-4.65v-9.75h2.4v9.75c.44.12.86.29 1.24.52l6.9-6.9 1.7 1.7-6.9 6.9a4.8 4.8 0 0 1-2.93 7.09v9.74h-2.41v-9.75a4.77 4.77 0 0 1-1.24-.52l-6.9 6.9-1.7-1.7 6.9-6.9a4.77 4.77 0 0 1-.66-2.43zm4.8-2.4a2.4 2.4 0 1 0 0 4.8 2.4 2.4 0 0 0 0-4.8z"/></defs><g><g transform="translate(-1000 -1251)"><use fill="#99286b" xlink:href="#fd2na"/></g></g></svg>