<svg xmlns="http://www.w3.org/2000/svg" xmlns:xlink="http://www.w3.org/1999/xlink" width="22" height="39" viewBox="0 0 22 39"><defs><path id="qlgaa" d="M818.8 1051.06a6 6 0 1 1 0-12.02 6 6 0 0 1 0 12.02zm0-9.6a3.6 3.6 0 1 0 0 7.2 3.6 3.6 0 0 0 0-7.2zm.33 20.56a13.1 13.1 0 0 1-5.2-1.08l-2.46 8.45-2.3-.67 4.87-16.8 2.3.67-1.74 6.03a10.8 10.8 0 0 0 8.4.29l-1.83-6.32 2.3-.67 1.7 5.87c1.28-.86 2.39-2 3.23-3.4l2.06 1.24a13.12 13.12 0 0 1-4.6 4.55l2.49 8.54-2.3.67-2.38-8.17c-1.45.53-3 .8-4.54.8zm.86-25.36h-2.36v-4.8H820z"/></defs><g><g transform="translate(-809 -1031)"><use fill="#99286b" xlink:href="#qlgaa"/></g></g></svg>