<svg xmlns="http://www.w3.org/2000/svg" xmlns:xlink="http://www.w3.org/1999/xlink" width="40" height="40" viewBox="0 0 40 40"><defs><path id="uvkka" d="M636.52 1050.59l-1.84-1.54a9.01 9.01 0 0 0-13.76-11.68l-.92 1.1-.92-1.1a9.01 9.01 0 1 0-13.76 11.68l-1.84 1.54a11.41 11.41 0 0 1 16.52-15.73 11.41 11.41 0 0 1 16.52 15.73zm-17.53 9.5l-3.98-8.62-1.44 3.13H600.8v-2.4h11.23l2.97-6.47 3.71 8.03 4.85-13.57 4.43 12.01h11.21v2.4h-12.88l-2.73-7.38zm2.77 10.11h-3.52l-9.96-11.8 1.84-1.55 9.24 10.95h1.28l9.24-10.95 1.84 1.54z"/></defs><g><g transform="translate(-600 -1031)"><use fill="#99286b" xlink:href="#uvkka"/></g></g></svg>