<svg xmlns="http://www.w3.org/2000/svg" xmlns:xlink="http://www.w3.org/1999/xlink" width="38" height="38" viewBox="0 0 38 38"><defs><path id="1inda" d="M1202.85 1288.85l-1.7-1.7 2.95-2.94 1.7 1.7zm26.41-26.41l-1.7-1.7 5.74-5.74-2.15-2.15 1.7-1.7 6 6-1.7 1.7-2.15-2.15zm-.98 6.07l-6.79-6.8-3.51 3.52 1.98 2-1.7 1.7-1.98-2 .83-.83-2.73 2.73 1.98 2-1.7 1.7-1.98-2 .76-.76-2.66 2.66 1.98 2-1.7 1.69-1.98-1.99.8-.8-1.67 1.68a4.8 4.8 0 0 0 6.78 6.78zm-6.79-10.18l10.18 10.18-14.98 14.98a7.18 7.18 0 0 1-10.18 0 7.21 7.21 0 0 1 0-10.18z"/></defs><g><g transform="translate(-1201 -1251)"><use fill="#99286b" xlink:href="#1inda"/></g></g></svg>