<svg xmlns="http://www.w3.org/2000/svg" xmlns:xlink="http://www.w3.org/1999/xlink" width="42" height="38" viewBox="0 0 42 38"><defs><path id="az72a" d="M1208.32 1046.2l-2.56-7.8 2.48-.8 2.55 7.8zm7.84 0l-2.55-7.8 2.47-.8 2.56 7.8zm-6.56 23a7.8 7.8 0 1 1 .02-15.62 7.8 7.8 0 0 1-.02 15.62zm0-13a5.2 5.2 0 1 0 .01 10.41 5.2 5.2 0 0 0-.01-10.41zm23.4 13a7.8 7.8 0 1 1 .02-15.62 7.8 7.8 0 0 1-.02 15.62zm0-13a5.2 5.2 0 1 0 .01 10.41 5.2 5.2 0 0 0-.01-10.41zm-7.8-2.37l-26-4.33v-16.7h41.6v2.6h-39v11.9l20.8 3.46V1038h2.6zm15.6-.23h-2.6v-6.29l-2.24-6.71h-5.56v7.8h5.2v2.6h-7.8v-13h10.04l2.96 8.89z"/></defs><g><g transform="translate(-1199 -1032)"><use fill="#99286b" xlink:href="#az72a"/></g></g></svg>