<svg xmlns="http://www.w3.org/2000/svg" xmlns:xlink="http://www.w3.org/1999/xlink" width="40" height="32" viewBox="0 0 40 32"><defs><path id="vt4ua" d="M624.78 1282.42h-24v-24h24zm-21.6-2.4h19.2v-19.2h-19.2zm36 2.4h-12v-2.4h9.6v-8.11l-3.14-6.29h-4.06v7.2h4.8v2.4h-7.2v-12h7.94l4.06 8.12zm-19.2-7.2h-14.4v-2.4h14.4zm13.2 14.4a4.8 4.8 0 0 1-4.8-4.8h2.4a2.4 2.4 0 0 0 4.8 0h2.4a4.8 4.8 0 0 1-4.8 4.8zm-22.8 0a4.8 4.8 0 0 1-4.8-4.8h2.4a2.4 2.4 0 0 0 4.8 0h2.4a4.8 4.8 0 0 1-4.8 4.8z"/></defs><g><g transform="translate(-600 -1258)"><use fill="#99286b" xlink:href="#vt4ua"/></g></g></svg>